<svg width="104" height="53" viewBox="0 0 104 53" fill="none" xmlns="http://www.w3.org/2000/svg">
<path d="M12.4397 51.0896C12.3567 44.3831 11.8914 34.2746 11.3682 26.1503C13.3849 26.107 16.0581 26.0168 18.1253 25.8112C18.8071 25.7426 19.4024 26.2729 19.4204 26.9584C19.4781 29.3394 19.1318 34.0365 16.2818 37.2833C15.8128 37.8172 16.2638 38.6578 16.9672 38.5532C28.7172 36.8252 30.3262 21.951 29.9185 16.0202C29.8608 15.1868 29.0851 14.5952 28.2626 14.7611C22.9306 15.8506 14.4419 16.5252 10.6467 16.7922C10.571 16.0093 10.4952 15.3311 10.4231 14.7683C10.3184 13.9674 9.65464 13.3577 8.84654 13.3325C6.24907 13.2495 2.81103 13.3181 1.0397 13.3614C0.408375 13.3794 -0.0678275 13.935 0.00793203 14.5591C0.639261 19.6097 3.58667 39.8952 11.2853 51.4467C11.6316 51.9698 12.4505 51.7137 12.4397 51.086V51.0896Z" fill="#34393D"/>
<path d="M38.1546 20.2304L32.8803 20.5334C31.7042 20.602 30.7482 21.5147 30.6292 22.6871C28.9913 39.1522 33.3168 47.9187 36.5095 51.9303C36.8739 52.3885 37.6026 52.0818 37.5305 51.5046C36.4302 42.5975 38.7499 26.9549 39.5832 21.8177C39.7239 20.9519 39.0276 20.1799 38.151 20.2304H38.1546Z" fill="#34393D"/>
<path d="M59.6234 20.4937H53.0504C52.4191 20.4937 51.8887 20.9735 51.8346 21.6048C51.7228 22.8494 51.4631 25.0681 50.8822 27.882C49.6412 25.5407 48.5589 23.5601 47.8807 22.3263C47.4406 21.5254 46.5026 21.1394 45.626 21.3956L41.1201 22.7087C39.9512 23.0478 39.3451 24.3502 39.8538 25.4577C42.0617 30.2847 44.9117 34.6354 47.7653 38.3332C46.1815 42.3088 43.9989 46.5152 40.9938 50.4728C40.6294 50.9526 41.1994 51.5767 41.7081 51.2592C44.5112 49.5131 48.0106 46.573 51.3007 42.6118C54.4285 46.1509 57.2172 48.7231 58.7251 50.0435C59.2086 50.4656 59.9589 50.0795 59.894 49.441C59.7208 47.7057 59.0462 44.4878 56.6977 39.448C56.2972 38.5857 55.8751 37.7055 55.4422 36.8144C57.982 32.6404 60.0708 27.763 61.117 22.2974C61.2974 21.3631 60.5722 20.4973 59.6234 20.4973V20.4937Z" fill="#34393D"/>
<path d="M62.9568 22.5971L62.1018 29.621C62.008 30.375 62.6358 31.0244 63.3934 30.9631C66.3047 30.725 73.1086 29.6247 79.6961 24.6137C80.5836 23.9391 80.1579 22.5249 79.0467 22.4564C74.1368 22.1569 66.9685 21.7132 64.2231 21.5436C63.5882 21.504 63.0362 21.9657 62.9605 22.5971H62.9568Z" fill="#34393D"/>
<path d="M77.9248 39.0331C78.3505 39.0331 78.7113 38.7337 78.7942 38.3152C78.9999 37.251 79.3137 34.9638 79.2019 31.2624C79.173 30.2847 78.1268 29.6822 77.2646 30.144C72.6144 32.6188 66.2254 34.7112 62.6502 35.7863C61.7952 36.0424 61.8205 37.2582 62.6827 37.4855C68.0833 38.896 75.6159 39.0295 77.9284 39.0331H77.9248Z" fill="#34393D"/>
<path d="M63.029 41.7714C62.0874 41.6019 61.3443 42.5579 61.7411 43.4273C62.4121 44.8956 63.4294 46.9736 64.6777 49.0948C64.9374 49.535 65.4425 49.7695 65.9439 49.6829C75.4824 48.0378 78.6968 46.1005 80.8072 44.3653C81.186 44.055 80.9443 43.4489 80.4573 43.4814C75.3237 43.8241 66.9685 42.4821 63.029 41.7714Z" fill="#34393D"/>
<path d="M84.3896 47.7491C87.1674 47.7852 97.4166 47.5579 103.734 42.4965C104.311 42.0347 103.874 41.1075 103.149 41.2446C98.7334 42.0852 94.5774 42.446 91.3522 42.0924C90.5333 42.0022 89.9345 41.2771 89.985 40.4582C90.2231 36.6594 91.06 26.1108 93.2246 19.9129C93.4879 19.1553 92.9504 18.3544 92.1495 18.3075C89.4871 18.1416 85.461 17.9793 83.4913 17.9035C82.8455 17.8782 82.3008 18.3833 82.2755 19.0291C82.0879 23.8163 81.5252 41.9012 83.3434 47.0096C83.5021 47.4497 83.9134 47.7491 84.3824 47.7563L84.3896 47.7491Z" fill="#34393D"/>
<path d="M29.3665 7.75532C32.7938 9.41842 35.9252 10.1544 38.887 10.3348C39.4173 12.1458 40.4383 14.8623 42.2962 17.6113C42.6425 18.1272 43.447 17.871 43.429 17.2505C43.3568 14.8731 43.5336 12.4235 43.9629 10.1399C45.139 9.99203 46.297 9.77918 47.4442 9.53747C47.6426 11.9077 48.1224 14.8587 49.266 17.0521C49.5005 17.503 50.1679 17.4453 50.3195 16.9583C50.6586 15.8544 51.0013 14.4582 51.3188 13.0296L55.1608 12.6977C55.1248 14.4366 55.0598 16.1791 54.9588 17.7448C54.9227 18.3148 55.6551 18.5853 55.9906 18.1235C58.0109 15.3204 60.179 8.72216 60.4568 2.17437C60.4748 1.77032 60.1141 1.44924 59.7136 1.51779C57.8918 1.82804 56.4235 2.0914 55.6803 2.22488C55.3737 2.27899 55.1536 2.54956 55.1572 2.85981C55.1789 3.97456 55.2186 6.68747 55.1969 9.79L51.9068 10.1652C52.2134 8.60311 52.4552 7.23222 52.5886 6.44216C52.6536 6.06697 52.3758 5.72064 51.9934 5.7026L47.9745 5.50779C47.6138 5.48975 47.3107 5.77475 47.3107 6.13551C47.3071 6.55399 47.3107 7.14924 47.336 7.85994C38.4649 5.7495 33.3205 1.99038 31.2894 0.226269C30.7879 -0.21025 30.0015 0.0134207 29.8067 0.651965C29.3377 2.18519 28.6919 4.72133 28.7893 6.88228C28.8074 7.25747 29.0238 7.59659 29.3629 7.75893L29.3665 7.75532Z" fill="#34393D"/>
<path d="M72.0697 6.7416C72.5675 6.47825 72.3691 5.71705 71.8063 5.72787C68.6857 5.77837 63.8191 5.59799 61.8097 5.51502C61.2866 5.49337 60.8356 5.88299 60.7815 6.4061C60.6661 7.54249 60.547 9.42926 60.8933 10.3781C62.9713 9.79002 68.3033 8.74382 72.0697 6.7416Z" fill="#34393D"/>
<path d="M69.8978 12.806C70.0025 12.8132 70.0999 12.7735 70.172 12.6977C70.4318 12.4199 70.9765 11.5685 70.908 9.33905C70.9008 9.11899 70.6879 8.96026 70.4751 9.02159C68.6749 9.54469 64.1834 10.5043 62.0982 10.9408C61.7555 11.013 61.7302 11.4964 62.0694 11.5974C64.5333 12.355 69.0537 12.7374 69.9014 12.8023L69.8978 12.806Z" fill="#34393D"/>
<path d="M61.4236 13.5386C61.5426 14.3034 61.9178 16.1577 62.8883 17.5574C62.946 17.6404 63.0434 17.6873 63.1444 17.6837C68.2203 17.4997 71.5718 15.245 72.8308 14.2312C73.0437 14.0617 72.9282 13.7189 72.6576 13.7081L61.7302 13.1995C61.5426 13.1922 61.3947 13.3546 61.4236 13.5386Z" fill="#34393D"/>
</svg>
